<?xml version="1.0" encoding="UTF-8"?>
<svg id="workflowFlowchartSvg" xmlns="http://www.w3.org/2000/svg" viewBox="0 0 1200 815" role="img" aria-labelledby="title desc">
<title id="title">Decision 项目工作流流程图</title>
<desc id="desc">顶部为变更影响管理控制层，六个治理动作在每个项目阶段发生变化时重复执行；左侧分支说明该控制层在需求、产品设计、技术设计和开发验收阶段分别管控什么。</desc>
<defs>
  <marker id="arrow" markerWidth="12" markerHeight="12" refX="10" refY="6" orient="auto" markerUnits="strokeWidth">
    <path d="M2,2 L10,6 L2,10 Z" fill="#94a3b8"/>
  </marker>
  <marker id="controlArrow" markerWidth="12" markerHeight="12" refX="10" refY="6" orient="auto" markerUnits="strokeWidth">
    <path d="M2,2 L10,6 L2,10 Z" fill="#111827"/>
  </marker>
  <marker id="govArrow" markerWidth="12" markerHeight="12" refX="10" refY="6" orient="auto" markerUnits="strokeWidth">
    <path d="M2,2 L10,6 L2,10 Z" fill="#ffffff"/>
  </marker>
  <filter id="shadow" x="-10%" y="-10%" width="120%" height="120%">
    <feDropShadow dx="0" dy="4" stdDeviation="5" flood-color="#94a3b8" flood-opacity="0.12"/>
  </filter>
</defs>
<style>
  .canvas{fill:#ffffff}
  .governance{fill:#111827;filter:url(#shadow)}
  .governance-title{font:800 20px -apple-system,BlinkMacSystemFont,'Segoe UI','PingFang SC','Microsoft YaHei',sans-serif;fill:#ffffff;text-anchor:middle;dominant-baseline:middle}
  .governance-subtitle{font:500 14px -apple-system,BlinkMacSystemFont,'Segoe UI','PingFang SC','Microsoft YaHei',sans-serif;fill:#cbd5e1;text-anchor:middle;dominant-baseline:middle}
  .governance-note{font:600 13px -apple-system,BlinkMacSystemFont,'Segoe UI','PingFang SC','Microsoft YaHei',sans-serif;fill:#e5e7eb;text-anchor:middle;dominant-baseline:middle}
  .gov-node{fill:#ffffff;stroke:#111827;stroke-width:1.5}
  .gov-node-text{font:700 14px -apple-system,BlinkMacSystemFont,'Segoe UI','PingFang SC','Microsoft YaHei',sans-serif;fill:#111827;text-anchor:middle;dominant-baseline:middle}
  .gov-step{fill:none;stroke:#ffffff;stroke-width:1.6;marker-end:url(#govArrow)}
  .lane{fill:#f8fafc;stroke:#e5e7eb;stroke-width:1}
  .lane-title{font:700 17px -apple-system,BlinkMacSystemFont,'Segoe UI','PingFang SC','Microsoft YaHei',sans-serif;fill:#475569}
  .control-axis{fill:none;stroke:#111827;stroke-width:2.6;stroke-linecap:round}
  .control-branch{fill:none;stroke:#111827;stroke-width:2;marker-end:url(#controlArrow)}
  .control-label{fill:#111827}
  .control-label-text{font:700 13px -apple-system,BlinkMacSystemFont,'Segoe UI','PingFang SC','Microsoft YaHei',sans-serif;fill:#ffffff;text-anchor:middle;dominant-baseline:middle}
  .node,.gate{stroke:#cbd5e1;stroke-width:1.3;filter:url(#shadow)}
  .node{fill:#ffffff}
  .gate{fill:#f1f5f9}
  .node-text,.gate-text{font:500 14px -apple-system,BlinkMacSystemFont,'Segoe UI','PingFang SC','Microsoft YaHei',sans-serif;fill:#334155;text-anchor:middle;dominant-baseline:middle}
  .gate-text{font-weight:650}
  .arrow{fill:none;stroke:#94a3b8;stroke-width:1.4;marker-end:url(#arrow)}
  .stage-flow-label{font:600 12px -apple-system,BlinkMacSystemFont,'Segoe UI','PingFang SC','Microsoft YaHei',sans-serif;fill:#64748b;text-anchor:end}
</style>
<rect class="canvas" x="0" y="0" width="1200" height="815"/>

<rect class="governance" x="44" y="24" width="1112" height="168" rx="24"/>
<text class="governance-title" x="600" y="54">变更影响管理</text>
<text class="governance-subtitle" x="600" y="81">控制层：发现变化 → 判断影响 → 同步产物 → 验证一致性 → 沉淀证据</text>
<g id="gov0">
  <rect class="gov-node" x="92" y="104" width="132" height="44" rx="14"/>
  <text class="gov-node-text" x="158" y="123"><tspan x="158">扫描</tspan><tspan x="158" dy="16">变更</tspan></text>
</g>
<g id="gov1">
  <rect class="gov-node" x="263" y="104" width="132" height="44" rx="14"/>
  <text class="gov-node-text" x="329" y="123"><tspan x="329">状态</tspan><tspan x="329" dy="16">标记</tspan></text>
</g>
<g id="gov2">
  <rect class="gov-node" x="434" y="104" width="132" height="44" rx="14"/>
  <text class="gov-node-text" x="500" y="123"><tspan x="500">影响</tspan><tspan x="500" dy="16">分析</tspan></text>
</g>
<g id="gov3">
  <rect class="gov-node" x="605" y="104" width="132" height="44" rx="14"/>
  <text class="gov-node-text" x="671" y="123"><tspan x="671">同步上下游</tspan><tspan x="671" dy="16">产物</tspan></text>
</g>
<g id="gov4">
  <rect class="gov-node" x="776" y="104" width="132" height="44" rx="14"/>
  <text class="gov-node-text" x="842" y="123"><tspan x="842">验证 / 接受</tspan><tspan x="842" dy="16">变更</tspan></text>
</g>
<g id="gov5">
  <rect class="gov-node" x="947" y="104" width="132" height="44" rx="14"/>
  <text class="gov-node-text" x="1013" y="123"><tspan x="1013">记录证据</tspan><tspan x="1013" dy="16">与决策</tspan></text>
</g>
<path class="gov-step" d="M 224 126 L 263 126"/>
<path class="gov-step" d="M 395 126 L 434 126"/>
<path class="gov-step" d="M 566 126 L 605 126"/>
<path class="gov-step" d="M 737 126 L 776 126"/>
<path class="gov-step" d="M 908 126 L 947 126"/>
<text class="governance-note" x="600" y="170">上方 6 个节点不是单独产物；它们是在每个阶段遇到范围、设计、技术或验收变化时重复执行的治理动作</text>

<path class="control-axis" d="M 72 192 L 72 775"/>
<text class="stage-flow-label" x="1110" y="214">阶段门禁通过后进入下一阶段</text>

<rect class="lane" x="128" y="218" width="1036" height="118" rx="16"/>
<text class="lane-title" x="150" y="249">需求澄清</text>
<path class="control-branch" d="M 72 277 L 128 277"/>
<rect class="control-label" x="150" y="266" width="238" height="32" rx="16"/>
<text class="control-label-text" x="269" y="286">范围变化：回到需求确认</text>

<rect class="lane" x="128" y="365" width="1036" height="118" rx="16"/>
<text class="lane-title" x="150" y="396">产品设计</text>
<path class="control-branch" d="M 72 424 L 128 424"/>
<rect class="control-label" x="150" y="413" width="270" height="32" rx="16"/>
<text class="control-label-text" x="285" y="433">设计变化：同步流程 / PRD / 原型</text>

<rect class="lane" x="128" y="512" width="1036" height="118" rx="16"/>
<text class="lane-title" x="150" y="543">技术设计</text>
<path class="control-branch" d="M 72 571 L 128 571"/>
<rect class="control-label" x="150" y="560" width="276" height="32" rx="16"/>
<text class="control-label-text" x="288" y="580">技术变化：校准架构 / 接口 / 任务</text>

<rect class="lane" x="128" y="659" width="1036" height="118" rx="16"/>
<text class="lane-title" x="150" y="690">开发验收</text>
<path class="control-branch" d="M 72 718 L 128 718"/>
<rect class="control-label" x="150" y="707" width="270" height="32" rx="16"/>
<text class="control-label-text" x="285" y="727">验收变化：补测试 / 截图 / 记录</text>

<g id="row1">
  <rect class="node" x="438" y="255" width="90" height="44" rx="8"/>
  <text class="node-text" x="483" y="281">头脑风暴</text>
  <rect class="node" x="548" y="255" width="90" height="44" rx="8"/>
  <text class="node-text" x="593" y="281">市场调研</text>
  <rect class="node" x="658" y="255" width="90" height="44" rx="8"/>
  <text class="node-text" x="703" y="281">竞品分析</text>
  <rect class="node" x="768" y="255" width="90" height="44" rx="8"/>
  <text class="node-text" x="813" y="281">ROI 预估</text>
  <rect class="node" x="878" y="255" width="90" height="44" rx="8"/>
  <text class="node-text" x="923" y="281">功能清单</text>
  <polygon class="gate" points="1058,241 1106,277 1058,313 1010,277"/>
  <text class="gate-text" x="1058" y="273"><tspan x="1058">需求</tspan><tspan x="1058" dy="17">OK?</tspan></text>
  <path class="arrow" d="M 528 277 L 548 277"/>
  <path class="arrow" d="M 638 277 L 658 277"/>
  <path class="arrow" d="M 748 277 L 768 277"/>
  <path class="arrow" d="M 858 277 L 878 277"/>
  <path class="arrow" d="M 968 277 L 1010 277"/>
</g>

<g id="row2">
  <rect class="node" x="438" y="402" width="84" height="44" rx="8"/>
  <text class="node-text" x="480" y="428">用户流程</text>
  <rect class="node" x="540" y="402" width="84" height="44" rx="8"/>
  <text class="node-text" x="582" y="428">系统流程</text>
  <rect class="node" x="642" y="402" width="84" height="44" rx="8"/>
  <text class="node-text" x="684" y="428">概念原型</text>
  <rect class="node" x="744" y="402" width="84" height="44" rx="8"/>
  <text class="node-text" x="786" y="428">PRD</text>
  <rect class="node" x="846" y="402" width="84" height="44" rx="8"/>
  <text class="node-text" x="888" y="419"><tspan x="888">高保真</tspan><tspan x="888" dy="17">原型</tspan></text>
  <polygon class="gate" points="1058,388 1106,424 1058,460 1010,424"/>
  <text class="gate-text" x="1058" y="420"><tspan x="1058">原型</tspan><tspan x="1058" dy="17">OK?</tspan></text>
  <path class="arrow" d="M 522 424 L 540 424"/>
  <path class="arrow" d="M 624 424 L 642 424"/>
  <path class="arrow" d="M 726 424 L 744 424"/>
  <path class="arrow" d="M 828 424 L 846 424"/>
  <path class="arrow" d="M 930 424 L 1010 424"/>
</g>

<g id="row3">
  <rect class="node" x="438" y="549" width="84" height="44" rx="8"/>
  <text class="node-text" x="480" y="575">系统架构</text>
  <rect class="node" x="540" y="549" width="84" height="44" rx="8"/>
  <text class="node-text" x="582" y="566"><tspan x="582">接口与</tspan><tspan x="582" dy="17">数据模型</tspan></text>
  <rect class="node" x="642" y="549" width="84" height="44" rx="8"/>
  <text class="node-text" x="684" y="575">任务拆分</text>
  <rect class="node" x="744" y="549" width="84" height="44" rx="8"/>
  <text class="node-text" x="786" y="575">测试策略</text>
  <rect class="node" x="846" y="549" width="84" height="44" rx="8"/>
  <text class="node-text" x="888" y="575">部署计划</text>
  <polygon class="gate" points="1058,535 1106,571 1058,607 1010,571"/>
  <text class="gate-text" x="1058" y="567"><tspan x="1058">技术</tspan><tspan x="1058" dy="17">OK?</tspan></text>
  <path class="arrow" d="M 522 571 L 540 571"/>
  <path class="arrow" d="M 624 571 L 642 571"/>
  <path class="arrow" d="M 726 571 L 744 571"/>
  <path class="arrow" d="M 828 571 L 846 571"/>
  <path class="arrow" d="M 930 571 L 1010 571"/>
</g>

<g id="row4">
  <rect class="node" x="438" y="696" width="76" height="44" rx="8"/>
  <text class="node-text" x="476" y="722">正式开发</text>
  <rect class="node" x="528" y="696" width="76" height="44" rx="8"/>
  <text class="node-text" x="566" y="722">等价迁移</text>
  <rect class="node" x="618" y="696" width="76" height="44" rx="8"/>
  <text class="node-text" x="656" y="713"><tspan x="656">自动化</tspan><tspan x="656" dy="17">测试</tspan></text>
  <rect class="node" x="708" y="696" width="76" height="44" rx="8"/>
  <text class="node-text" x="746" y="722">截图差异</text>
  <rect class="node" x="798" y="696" width="76" height="44" rx="8"/>
  <text class="node-text" x="836" y="722">用户确认</text>
  <rect class="node" x="888" y="696" width="76" height="44" rx="8"/>
  <text class="node-text" x="926" y="722">测试验收</text>
  <rect class="node" x="978" y="696" width="76" height="44" rx="8"/>
  <text class="node-text" x="1016" y="722">交付闭环</text>
  <path class="arrow" d="M 514 718 L 528 718"/>
  <path class="arrow" d="M 604 718 L 618 718"/>
  <path class="arrow" d="M 694 718 L 708 718"/>
  <path class="arrow" d="M 784 718 L 798 718"/>
  <path class="arrow" d="M 874 718 L 888 718"/>
  <path class="arrow" d="M 964 718 L 978 718"/>
</g>

<path class="arrow" d="M 1058 313 L 1058 360"/>
<path class="arrow" d="M 1058 460 L 1058 507"/>
<path class="arrow" d="M 1058 607 L 1058 654"/>
</svg>
